<svg width="631" height="460" viewBox="0 0 631 300" fill="none" xmlns="http://www.w3.org/2000/svg">
    <g clip-path="url(#clip0_131_62)">
        <path
            d="M518.093 117.304C518.688 116.9 519.364 116.632 520.074 116.517C520.784 116.403 521.511 116.446 522.202 116.643C522.894 116.84 523.534 117.187 524.077 117.658C524.62 118.13 525.054 118.715 525.346 119.372L536.582 119.075L538.428 125.866L522.555 126.062C521.419 126.482 520.169 126.47 519.042 126.028C517.914 125.587 516.988 124.747 516.438 123.667C515.888 122.587 515.753 121.344 516.058 120.171C516.363 118.998 517.087 117.978 518.093 117.304L518.093 117.304Z"
            fill="#FFB8B8" />
        <path
            d="M530.695 128.159C529.994 127.506 529.569 126.61 529.504 125.654L529.055 118.904C529.013 118.286 529.125 117.667 529.38 117.103C529.635 116.539 530.025 116.046 530.516 115.67L548.63 101.739L559.159 88.9446C560.227 87.6516 561.746 86.8139 563.408 86.6017C565.07 86.3895 566.75 86.8188 568.107 87.8023L568.108 87.8024C568.814 88.3156 569.411 88.9643 569.864 89.7107C570.318 90.4571 570.618 91.2863 570.749 92.15C570.879 93.0137 570.837 93.8948 570.624 94.7419C570.411 95.5891 570.032 96.3854 569.508 97.0845L557.244 113.475L548.512 122.731C545.736 125.66 542.101 127.628 538.133 128.35L533.92 129.107C533.399 129.201 532.865 129.183 532.352 129.056C531.838 128.929 531.358 128.695 530.941 128.369C530.855 128.302 530.773 128.232 530.695 128.159Z"
            fill="#ED7D39" />
        <path d="M613.696 233.833L607.879 235.288L599.506 213.518L608.092 211.371L613.696 233.833Z"
            fill="#FFB8B8" />
        <path
            d="M603.308 234.663L614.528 231.858L616.292 238.929L598.008 243.5C597.776 242.571 597.729 241.606 597.87 240.659C598.011 239.713 598.337 238.803 598.829 237.983C599.321 237.162 599.97 236.446 600.739 235.877C601.507 235.307 602.38 234.895 603.308 234.663Z"
            fill="#2F2E41" />
        <path d="M561.189 237.926L555.193 237.926L552.342 214.774L561.191 214.774L561.189 237.926Z"
            fill="#FFB8B8" />
        <path
            d="M550.91 236.211H562.474V243.499H543.628C543.628 242.542 543.817 241.594 544.182 240.71C544.548 239.826 545.085 239.022 545.761 238.345C546.437 237.669 547.24 237.132 548.123 236.765C549.007 236.399 549.953 236.211 550.91 236.211Z"
            fill="#2F2E41" />
        <path
            d="M558.589 70.8168C565.704 70.8168 571.472 65.0432 571.472 57.9212C571.472 50.7992 565.704 45.0257 558.589 45.0257C551.474 45.0257 545.707 50.7992 545.707 57.9212C545.707 65.0432 551.474 70.8168 558.589 70.8168Z"
            fill="#FFB8B8" />
        <path
            d="M558.565 58.3784C558.589 56.6536 561.554 56.4375 562.478 57.9075C563.402 59.3776 562.809 61.2956 561.995 62.8263C561.148 64.4199 560.049 66.0293 560.218 67.8392C560.277 68.296 560.449 68.7307 560.72 69.1028C560.992 69.4748 561.353 69.7721 561.769 69.9669C562.186 70.1618 562.646 70.2479 563.105 70.2172C563.564 70.1866 564.008 70.0401 564.395 69.7915C568.603 67.1979 572.155 63.4227 573.727 58.8218C575.38 53.9827 574.554 48.2143 570.979 44.4964C567.404 40.7786 560.994 39.7269 556.751 42.6991L549.507 37.7608C549.337 37.6406 549.133 37.5762 548.925 37.5764C548.716 37.5765 548.513 37.6413 548.342 37.7618C548.172 37.8823 548.043 38.0526 547.973 38.2494C547.903 38.4462 547.896 38.6598 547.952 38.8608L549.011 42.3065L545.353 41.3852C545.197 41.3419 545.032 41.3467 544.878 41.399C544.725 41.4513 544.591 41.5487 544.494 41.6784C544.397 41.8082 544.342 41.9642 544.335 42.1261C544.328 42.2879 544.37 42.4482 544.455 42.5858L545.711 44.5391C544.036 43.1596 541.143 44.7317 540.902 46.8592C540.662 48.9866 542.39 50.9478 544.421 51.7492C546.452 52.5506 548.721 52.4594 550.909 52.3557C550.673 53.4153 550.777 54.5223 551.206 55.5193C551.635 56.5162 552.368 57.3521 553.3 57.908C555.192 59.0058 557.805 58.747 558.565 58.3784Z"
            fill="#2F2E41" />
        <path
            d="M561.356 228.149C561.331 228.149 561.306 228.149 561.281 228.148L552.019 227.859C551.704 227.849 551.395 227.777 551.109 227.645C550.823 227.514 550.566 227.327 550.354 227.095C550.141 226.863 549.977 226.591 549.871 226.294C549.764 225.998 549.719 225.683 549.736 225.369L554.368 140.225L589.962 150.329L613.302 223.195C613.414 223.545 613.443 223.915 613.387 224.278C613.331 224.64 613.192 224.985 612.98 225.284C612.768 225.583 612.489 225.829 612.166 226.001C611.843 226.174 611.484 226.269 611.117 226.279L600.45 226.562C599.968 226.572 599.495 226.435 599.092 226.17C598.69 225.905 598.377 225.524 598.195 225.078L574.187 164.964C574.123 164.803 574.008 164.668 573.859 164.579C573.711 164.491 573.537 164.454 573.365 164.474C573.193 164.494 573.033 164.57 572.909 164.691C572.785 164.811 572.704 164.97 572.679 165.141L563.69 226.131C563.607 226.692 563.326 227.204 562.897 227.575C562.469 227.945 561.922 228.149 561.356 228.149Z"
            fill="#2F2E41" />
        <path
            d="M588.234 161.586C585.706 161.584 583.243 160.783 581.196 159.297L569.743 151.021C567.23 149.209 564.318 148.028 561.254 147.577L555.743 146.773C554.897 146.651 554.126 146.219 553.581 145.561C553.036 144.902 552.754 144.064 552.792 143.209L554.988 90.5741L553.684 83.0707C553.579 82.459 553.651 81.8299 553.892 81.258C554.134 80.686 554.533 80.1953 555.045 79.8441L565.253 72.8529C566.057 72.3028 567.025 72.0443 567.996 72.1205L568.369 72.15C569.414 72.2319 570.407 72.6407 571.207 73.3187C572.008 73.9967 572.575 74.9094 572.829 75.9278L573.22 77.495L580.011 89.5804C582.018 93.152 583.527 96.9822 584.495 100.964L590.933 127.447C591.492 129.751 591.88 132.093 592.092 134.455L594.224 158.27C594.273 158.785 594.153 159.302 593.882 159.744C593.612 160.185 593.205 160.526 592.724 160.716C591.297 161.29 589.773 161.585 588.234 161.586Z"
            fill="#ED7D39" />
        <path
            d="M566.87 142.513C566.729 141.807 566.745 141.079 566.917 140.38C567.088 139.681 567.411 139.028 567.861 138.467C568.312 137.906 568.88 137.451 569.525 137.134C570.171 136.816 570.878 136.644 571.597 136.63L575.698 126.156L582.665 127.098L576.666 141.809C576.609 143.019 576.111 144.167 575.266 145.035C574.421 145.902 573.287 146.429 572.08 146.516C570.872 146.603 569.675 146.243 568.715 145.505C567.754 144.767 567.098 143.703 566.87 142.513Z"
            fill="#FFB8B8" />
        <path
            d="M581.764 135.12C580.89 135.512 579.9 135.556 578.996 135.242L572.609 133.028C572.025 132.826 571.499 132.483 571.079 132.028C570.659 131.573 570.358 131.022 570.202 130.422L564.437 108.297L556.764 93.6072C555.989 92.1198 555.81 90.3931 556.262 88.778C556.714 87.163 557.763 85.7808 559.197 84.9123L559.197 84.9123C559.944 84.4611 560.773 84.1631 561.637 84.0356C562.5 83.9082 563.38 83.9539 564.226 84.17C565.071 84.3861 565.865 84.7684 566.562 85.2945C567.259 85.8207 567.844 86.4802 568.283 87.2348L578.59 104.925L583.707 116.58C585.321 120.279 585.717 124.397 584.836 128.337L583.893 132.516C583.776 133.032 583.552 133.518 583.235 133.942C582.918 134.366 582.515 134.718 582.053 134.975C581.959 135.028 581.862 135.076 581.764 135.12Z"
            fill="#ED7D39" />
        <path
            d="M513.728 178.987H229.26C226.966 178.984 224.766 178.071 223.143 176.447C221.521 174.823 220.608 172.621 220.605 170.324V9.76657H522.383V170.324C522.38 172.621 521.468 174.823 519.845 176.447C518.223 178.071 516.023 178.984 513.728 178.987Z"
            fill="#E6E6E6" />
        <path
            d="M502.408 162.404H240.581C239.399 162.403 238.265 161.933 237.43 161.096C236.594 160.259 236.124 159.125 236.122 157.942V30.8115C236.124 29.6283 236.594 28.494 237.43 27.6573C238.265 26.8206 239.399 26.35 240.581 26.3487H502.408C503.59 26.35 504.723 26.8206 505.559 27.6573C506.394 28.4939 506.865 29.6283 506.866 30.8115V157.942C506.865 159.125 506.394 160.259 505.559 161.096C504.723 161.933 503.59 162.403 502.408 162.404Z"
            fill="white" />
        <path
            d="M522.988 15.6187H220V8.66317C220.003 6.36635 220.915 4.16435 222.538 2.54025C224.16 0.916152 226.36 0.0025931 228.655 0H514.334C516.628 0.00259449 518.828 0.916152 520.451 2.54025C522.073 4.16435 522.986 6.36635 522.988 8.66317V15.6187Z"
            fill="#ED7D39" />
        <path
            d="M307.201 51.2996H260.598C259.416 51.3004 258.282 51.7708 257.446 52.6076C256.61 53.4444 256.14 54.579 256.139 55.7624V86.4248C256.14 87.6082 256.61 88.7428 257.446 89.5796C258.282 90.4164 259.416 90.8868 260.598 90.8876H307.201C308.383 90.886 309.516 90.4152 310.352 89.5786C311.188 88.7421 311.658 87.6079 311.66 86.4248V55.7624C311.658 54.5793 311.188 53.4451 310.352 52.6085C309.516 51.772 308.383 51.3012 307.201 51.2996Z"
            fill="#E6E6E6" />
        <path
            d="M394.796 51.2996H348.193C347.01 51.3004 345.877 51.7708 345.041 52.6076C344.205 53.4444 343.735 54.579 343.734 55.7624V86.4248C343.735 87.6082 344.205 88.7428 345.041 89.5796C345.877 90.4164 347.01 90.8868 348.193 90.8876H394.796C395.978 90.886 397.111 90.4152 397.947 89.5786C398.783 88.7421 399.253 87.6079 399.255 86.4248V55.7624C399.253 54.5793 398.783 53.4451 397.947 52.6085C397.111 51.772 395.978 51.3012 394.796 51.2996Z"
            fill="#E6E6E6" />
        <path
            d="M482.391 51.2996H435.788C434.605 51.3004 433.472 51.7708 432.636 52.6076C431.8 53.4444 431.33 54.579 431.329 55.7624V86.4248C431.33 87.6082 431.8 88.7428 432.636 89.5796C433.472 90.4164 434.605 90.8868 435.788 90.8876H482.391C483.573 90.886 484.706 90.4152 485.542 89.5786C486.378 88.7421 486.848 87.6079 486.85 86.4248V55.7624C486.848 54.5793 486.378 53.4451 485.542 52.6085C484.706 51.772 483.573 51.3012 482.391 51.2996Z"
            fill="#E6E6E6" />
        <path
            d="M300.608 105.379H267.191C266.534 105.379 265.904 105.64 265.439 106.105C264.974 106.571 264.713 107.202 264.713 107.86C264.713 108.518 264.974 109.149 265.439 109.614C265.904 110.079 266.534 110.34 267.191 110.34H300.608C301.266 110.34 301.896 110.079 302.361 109.614C302.826 109.149 303.087 108.518 303.087 107.86C303.087 107.202 302.826 106.571 302.361 106.105C301.896 105.64 301.266 105.379 300.608 105.379Z"
            fill="#E6E6E6" />
        <path
            d="M300.608 118.935H267.191C266.624 118.934 266.073 119.128 265.632 119.485C265.19 119.841 264.884 120.338 264.765 120.894C264.646 121.449 264.721 122.028 264.977 122.534C265.233 123.041 265.656 123.444 266.173 123.676C266.493 123.822 266.84 123.897 267.191 123.897H300.608C301.266 123.897 301.896 123.636 302.361 123.17C302.826 122.705 303.087 122.074 303.087 121.416C303.087 120.758 302.826 120.127 302.361 119.662C301.896 119.197 301.266 118.935 300.608 118.935Z"
            fill="#E6E6E6" />
        <path
            d="M300.608 132.492H267.191C266.534 132.492 265.904 132.753 265.439 133.218C264.974 133.684 264.713 134.315 264.713 134.973C264.713 135.631 264.974 136.262 265.439 136.727C265.904 137.192 266.534 137.454 267.191 137.454H300.608C301.266 137.454 301.896 137.192 302.361 136.727C302.826 136.262 303.087 135.631 303.087 134.973C303.087 134.315 302.826 133.684 302.361 133.218C301.896 132.753 301.266 132.492 300.608 132.492Z"
            fill="#E6E6E6" />
        <path
            d="M388.203 105.379H354.786C354.129 105.379 353.498 105.64 353.034 106.105C352.569 106.571 352.308 107.202 352.308 107.86C352.308 108.518 352.569 109.149 353.034 109.614C353.498 110.079 354.129 110.34 354.786 110.34H388.203C388.86 110.34 389.491 110.079 389.956 109.614C390.42 109.149 390.681 108.518 390.681 107.86C390.681 107.202 390.42 106.571 389.956 106.105C389.491 105.64 388.86 105.379 388.203 105.379Z"
            fill="#E6E6E6" />
        <path
            d="M388.203 118.935H354.786C354.129 118.935 353.498 119.197 353.034 119.662C352.569 120.127 352.308 120.758 352.308 121.416C352.308 122.074 352.569 122.705 353.034 123.17C353.498 123.636 354.129 123.897 354.786 123.897H388.203C388.86 123.897 389.491 123.636 389.956 123.17C390.42 122.705 390.681 122.074 390.681 121.416C390.681 120.758 390.42 120.127 389.956 119.662C389.491 119.197 388.86 118.935 388.203 118.935Z"
            fill="#E6E6E6" />
        <path
            d="M388.203 132.492H354.786C354.197 132.491 353.627 132.701 353.178 133.083C352.729 133.465 352.431 133.994 352.337 134.576C352.243 135.158 352.359 135.755 352.664 136.259C352.97 136.764 353.445 137.142 354.004 137.328C354.256 137.412 354.52 137.455 354.786 137.454H388.203C388.86 137.454 389.491 137.192 389.956 136.727C390.42 136.262 390.682 135.631 390.682 134.973C390.682 134.315 390.42 133.684 389.956 133.218C389.491 132.753 388.86 132.492 388.203 132.492Z"
            fill="#E6E6E6" />
        <path
            d="M475.798 105.379H442.381C441.723 105.379 441.093 105.64 440.628 106.105C440.163 106.571 439.902 107.202 439.902 107.86C439.902 108.518 440.163 109.149 440.628 109.614C441.093 110.079 441.723 110.34 442.381 110.34H475.798C476.455 110.34 477.086 110.079 477.55 109.614C478.015 109.149 478.276 108.518 478.276 107.86C478.276 107.202 478.015 106.571 477.55 106.105C477.086 105.64 476.455 105.379 475.798 105.379Z"
            fill="#E6E6E6" />
        <path
            d="M475.798 118.935H442.381C441.814 118.934 441.263 119.128 440.822 119.485C440.38 119.841 440.074 120.338 439.955 120.894C439.836 121.449 439.911 122.028 440.167 122.534C440.423 123.041 440.845 123.444 441.363 123.676C441.683 123.822 442.03 123.897 442.381 123.897H475.798C476.455 123.897 477.086 123.636 477.55 123.17C478.015 122.705 478.276 122.074 478.276 121.416C478.276 120.758 478.015 120.127 477.55 119.662C477.086 119.197 476.455 118.935 475.798 118.935Z"
            fill="#E6E6E6" />
        <path
            d="M475.798 132.492H442.381C441.723 132.492 441.093 132.753 440.628 133.218C440.163 133.684 439.902 134.315 439.902 134.973C439.902 135.631 440.163 136.262 440.628 136.727C441.093 137.192 441.723 137.454 442.381 137.454H475.798C476.455 137.454 477.086 137.192 477.55 136.727C478.015 136.262 478.276 135.631 478.276 134.973C478.276 134.315 478.015 133.684 477.55 133.218C477.086 132.753 476.455 132.492 475.798 132.492Z"
            fill="#E6E6E6" />
        <path
            d="M229.927 10.1502C231.168 10.1502 232.174 9.14326 232.174 7.90119C232.174 6.65912 231.168 5.65222 229.927 5.65222C228.686 5.65222 227.68 6.65912 227.68 7.90119C227.68 9.14326 228.686 10.1502 229.927 10.1502Z"
            fill="white" />
        <path
            d="M238.455 10.1502C239.696 10.1502 240.702 9.14326 240.702 7.90119C240.702 6.65912 239.696 5.65222 238.455 5.65222C237.214 5.65222 236.208 6.65912 236.208 7.90119C236.208 9.14326 237.214 10.1502 238.455 10.1502Z"
            fill="white" />
        <path
            d="M246.983 10.1502C248.224 10.1502 249.23 9.14326 249.23 7.90119C249.23 6.65912 248.224 5.65222 246.983 5.65222C245.742 5.65222 244.736 6.65912 244.736 7.90119C244.736 9.14326 245.742 10.1502 246.983 10.1502Z"
            fill="white" />
        <path
            d="M291.099 105.379H267.191C266.534 105.379 265.904 105.64 265.439 106.105C264.974 106.571 264.713 107.202 264.713 107.86C264.713 108.518 264.974 109.149 265.439 109.614C265.904 110.079 266.534 110.34 267.191 110.34H290.601C291.074 110.146 291.486 109.827 291.792 109.416C292.098 109.005 292.287 108.519 292.338 108.009C292.389 107.5 292.301 106.985 292.083 106.522C291.864 106.059 291.524 105.663 291.099 105.379Z"
            fill="#ED7D39" />
        <path
            d="M280.058 118.935H267.191C266.624 118.934 266.074 119.128 265.632 119.485C265.19 119.841 264.885 120.338 264.765 120.894C264.646 121.449 264.721 122.028 264.977 122.534C265.234 123.041 265.656 123.444 266.173 123.676H277.991C278.739 123.676 279.457 123.378 279.986 122.849C280.515 122.319 280.813 121.601 280.813 120.852C280.817 120.139 280.546 119.453 280.058 118.935Z"
            fill="#ED7D39" />
    </g>
    <defs>
        <clipPath id="clip0_131_62">
            <rect width="411" height="244" fill="white" transform="translate(220)" />
        </clipPath>
        <clipPath id="clip1_131_62">
            <rect width="431" height="290" fill="white" transform="translate(0 170)" />
        </clipPath>
    </defs>
</svg>