<svg width="591" height="501" viewBox="0 0 591 501" fill="none" xmlns="http://www.w3.org/2000/svg">
<g clip-path="url(#clip0_88_62)">
<path d="M587.788 315.499C587.813 336.611 584.218 357.57 577.16 377.472C577.156 377.485 577.151 377.494 577.147 377.507C577.116 377.6 577.085 377.684 577.05 377.776V377.781C575.544 382.002 573.89 386.152 572.087 390.232C567.538 400.521 562.061 410.376 555.723 419.674C554.186 421.939 552.595 424.167 550.949 426.359C549.139 428.782 547.271 431.157 545.346 433.483C543.571 435.629 541.749 437.734 539.88 439.797C537.659 442.256 535.371 444.651 533.018 446.984C527.479 452.489 521.598 457.639 515.409 462.405C514.323 463.247 513.225 464.074 512.115 464.886C509.532 466.79 506.897 468.625 504.211 470.394C498.303 474.291 492.174 477.845 485.856 481.039C484.765 481.594 483.666 482.141 482.562 482.669C478.292 484.727 473.935 486.62 469.492 488.349C468.224 488.847 466.953 489.327 465.668 489.79C465.451 489.873 465.235 489.953 465.014 490.028C449.778 495.515 433.884 498.979 417.742 500.329C416.62 500.431 415.497 500.516 414.372 500.585C413.18 500.668 411.987 500.736 410.791 500.787C409.847 500.836 408.906 500.871 407.957 500.898C407.762 500.906 407.564 500.915 407.369 500.915C406.093 500.955 404.813 500.98 403.528 500.99C402.985 500.995 402.442 500.999 401.894 500.999C401.638 500.999 401.382 500.999 401.126 500.995C397.421 500.981 393.745 500.861 390.096 500.633C390.021 500.629 389.946 500.62 389.871 500.62C388.564 500.532 387.261 500.439 385.963 500.325C381.34 499.937 376.767 499.379 372.244 498.65C371.202 498.487 370.163 498.311 369.126 498.122C364.627 497.329 360.186 496.372 355.805 495.253C354.502 494.923 353.207 494.578 351.919 494.218C344.486 492.154 337.19 489.626 330.075 486.648C325.991 484.938 321.983 483.091 318.052 481.105C316.281 480.211 314.528 479.288 312.793 478.338C312.321 478.083 311.852 477.823 311.384 477.563C307.967 475.659 304.62 473.653 301.343 471.544C298.659 469.821 296.024 468.029 293.44 466.168C293.122 465.948 292.808 465.719 292.495 465.49C290.512 464.049 288.562 462.571 286.644 461.057C282.471 457.757 278.447 454.289 274.572 450.654C271.892 448.143 269.29 445.552 266.765 442.882C252.058 427.36 240.142 409.424 231.543 389.862C229.715 385.699 228.037 381.458 226.509 377.142C226.504 377.132 226.501 377.122 226.5 377.111C219.528 357.316 215.977 336.482 216 315.5C216 237.616 264.103 170.942 332.279 143.448C356.575 133.691 382.66 129.153 408.832 130.13C435.004 131.107 460.675 137.577 484.173 149.118C545.567 179.402 587.788 242.533 587.788 315.499Z" fill="#F2F2F2"/>
<path d="M484.173 149.118V383.531H332.279V143.448C356.575 133.691 382.66 129.153 408.832 130.13C435.004 131.107 460.675 137.577 484.173 149.118V149.118Z" fill="white"/>
<path d="M368.831 256.016C372.952 249.215 377.835 241.954 385.481 239.734C394.337 237.162 403.433 242.271 411.149 247.312C434.225 262.388 456.447 278.726 477.714 296.251L477.691 296.515C461.133 295.376 444.576 294.237 428.019 293.097C416.057 292.274 403.683 291.337 393.112 285.69C389.1 283.547 385.19 280.685 380.644 280.486C374.996 280.238 370.072 284.174 366.202 288.286C343.31 312.611 336.686 349.809 311.003 371.181C327.198 331.327 346.534 292.818 368.831 256.016V256.016Z" fill="#F2F2F2"/>
<path d="M577.161 377.471C577.156 377.484 577.152 377.493 577.147 377.506C577.116 377.599 577.086 377.683 577.05 377.775V377.78C575.545 382.001 573.89 386.151 572.087 390.231L231.543 389.861C229.715 385.698 228.037 381.457 226.509 377.141C226.504 377.131 226.501 377.121 226.501 377.11L577.161 377.471Z" fill="#3F3D56"/>
<path d="M449.896 378.921H390.286V386.852H449.896V378.921Z" fill="white"/>
<path d="M311.38 456.589C311.592 454.725 311.885 452.873 312.259 451.033C314.302 441.054 318.687 431.701 325.055 423.741C328.698 423.944 331.89 423.389 332.195 416.348C332.252 415.096 333.184 414.008 333.387 412.774C333.043 412.823 332.685 412.849 332.341 412.871C332.23 412.876 332.115 412.885 332.009 412.889H331.97C331.587 412.907 331.208 412.814 330.877 412.621C330.547 412.429 330.279 412.145 330.107 411.803C329.935 411.462 329.865 411.079 329.906 410.699C329.948 410.319 330.099 409.96 330.34 409.664C330.491 409.483 330.641 409.298 330.791 409.113C331.016 408.826 331.25 408.549 331.48 408.267C331.506 408.236 331.528 408.21 331.555 408.179C331.815 407.857 332.076 407.535 332.341 407.214C331.862 406.472 331.218 405.851 330.46 405.398C327.832 403.861 324.207 404.927 322.309 407.297C320.405 409.668 320.043 412.999 320.706 415.96C321.271 418.498 322.503 420.824 323.885 423.036C323.744 423.217 323.593 423.393 323.452 423.578C320.848 426.921 318.578 430.51 316.674 434.294C317.213 430.095 310.629 414.938 308.082 411.726C305.022 407.87 298.752 409.553 298.213 414.444C298.209 414.488 298.2 414.537 298.195 414.585C298.575 414.797 298.946 415.021 299.308 415.264C299.763 415.567 300.115 416 300.319 416.507C300.523 417.014 300.569 417.57 300.45 418.103C300.332 418.636 300.055 419.121 299.656 419.494C299.256 419.867 298.754 420.111 298.213 420.194L298.156 420.203C293.095 427.416 309.322 446.191 313.389 441.978C312.367 444.845 311.551 447.781 310.947 450.764C310.406 453.395 310.028 456.057 309.817 458.735C309.559 462.107 309.576 465.495 309.866 468.865C309.857 468.826 309.852 468.786 309.848 468.746C308.943 461.405 293.457 450.491 288.936 451.399C286.331 451.923 283.765 451.804 284.163 454.426C284.167 454.47 284.176 454.51 284.18 454.554C284.883 454.836 285.565 455.165 286.225 455.536C286.604 455.748 286.975 455.977 287.337 456.215C287.763 456.499 288.1 456.897 288.309 457.364C288.518 457.831 288.59 458.347 288.517 458.854C288.445 459.36 288.231 459.835 287.899 460.225C287.568 460.615 287.133 460.903 286.644 461.057C288.565 462.568 290.515 464.046 292.495 465.49C292.808 465.719 293.122 465.948 293.44 466.168C296.023 468.028 298.657 469.819 301.344 471.544C304.62 473.65 307.967 475.656 311.384 477.563C311.853 477.823 312.321 478.083 312.793 478.338C311.605 473.461 311.003 468.46 311 463.441C310.999 461.152 311.126 458.864 311.38 456.589V456.589ZM313.795 440.846L313.804 440.833C313.804 440.841 313.801 440.849 313.795 440.855V440.846ZM310.276 472.531L310.139 472.227C310.144 472.002 310.144 471.782 310.139 471.553C310.139 471.491 310.126 471.429 310.126 471.368C310.179 471.76 310.223 472.152 310.281 472.544L310.276 472.531ZM330.557 473.13C330.605 472.927 330.645 472.786 330.694 472.584C330.676 472.54 330.658 472.496 330.641 472.456C329.17 468.962 321.408 476.007 318.052 481.105C321.982 483.088 325.99 484.936 330.075 486.648C330.349 486.304 330.632 485.965 330.91 485.621C330.936 485.591 330.959 485.564 330.981 485.533C331.581 484.793 332.186 484.062 332.782 483.321C332.787 483.176 332.787 483.031 332.787 482.89C332.781 480.767 332.52 478.654 332.009 476.593C331.599 476.612 331.193 476.505 330.846 476.286C330.499 476.067 330.228 475.746 330.07 475.368C329.911 474.991 329.873 474.573 329.96 474.173C330.047 473.772 330.255 473.408 330.557 473.13V473.13Z" fill="white"/>
<path d="M426.073 381.427C427.133 382.157 428.34 382.646 429.611 382.859C430.881 383.073 432.182 383.006 433.423 382.663C434.665 382.321 435.816 381.71 436.795 380.876C437.775 380.041 438.559 379.003 439.093 377.833L470.264 380.742L462.611 366.416L434.184 365.85C432.155 365.085 429.916 365.09 427.891 365.863C425.865 366.636 424.194 368.123 423.195 370.043C422.195 371.963 421.936 374.183 422.466 376.281C422.996 378.379 424.28 380.21 426.073 381.427V381.427Z" fill="#FFB6B6"/>
<path d="M457.68 380.446L500.816 385.272L500.964 385.082C501.249 384.719 529.474 348.667 534.216 340.085C537.133 334.928 538.196 328.932 537.227 323.09L537.195 322.947L537.082 322.852C534.783 320.929 531.895 319.845 528.896 319.78C525.896 319.714 522.964 320.67 520.582 322.491C509.13 331.342 499.896 342.728 493.609 355.75L490.041 363.162L457.68 366.347V380.446Z" fill="#ED7D39"/>
<path d="M422.684 481.278L414.374 500.586C413.181 500.67 411.988 500.737 410.793 500.789C409.848 500.837 408.907 500.872 407.958 500.899L407.635 501L407.371 500.916C406.094 500.956 404.814 500.981 403.529 500.991C402.986 500.996 402.443 501 401.895 501C401.639 501 401.383 501 401.127 500.996L401.679 499.11L402.328 496.876L404.907 488.028L408.629 475.255L414.166 477.625L422.684 481.278Z" fill="#FFB6B6"/>
<path d="M482.563 482.67C478.293 484.728 473.936 486.621 469.493 488.35L465.148 481.058L479.154 474.92L482.563 482.67Z" fill="#FFB6B6"/>
<path d="M512.116 449.527V464.887C509.533 466.791 506.898 468.626 504.212 470.395V449.527H512.116Z" fill="#CACACA"/>
<path d="M539.881 439.798C537.66 442.257 535.373 444.653 533.019 446.985C527.48 452.49 521.599 457.64 515.41 462.406H480.174C479.238 462.407 478.314 462.207 477.462 461.822C476.61 461.437 475.85 460.874 475.233 460.172L475.229 460.159C474.494 459.332 473.983 458.331 473.745 457.251L473.741 457.242C473.641 456.779 473.591 456.306 473.59 455.832V446.372C473.592 444.63 474.285 442.959 475.52 441.727C476.754 440.494 478.428 439.801 480.174 439.798H539.881Z" fill="#3F3D56"/>
<path d="M554.399 402.875L550.58 419.204C550.953 421.57 551.078 423.968 550.951 426.36C549.14 428.783 547.272 431.158 545.347 433.484C543.572 435.63 541.75 437.735 539.881 439.798C537.66 442.257 535.373 444.653 533.019 446.985C526.89 448.906 519.667 449.69 512.116 449.743C509.511 449.765 506.866 449.695 504.212 449.554C493.452 448.99 482.567 447.267 473.652 445.478C471.294 445.011 469.078 444.535 467.038 444.072C463.174 443.204 459.942 442.394 457.602 441.777C454.966 441.089 453.464 440.644 453.464 440.644L443.437 457.401L434.332 472.611L422.6 487.552C421.478 487.654 420.355 487.739 419.231 487.808C418.038 487.892 416.845 487.959 415.65 488.011C414.705 488.059 413.764 488.094 412.815 488.121L412.493 488.222L412.228 488.138L407.971 486.786L406.536 486.332L401.374 484.693C401.374 484.693 402.527 481.071 404.545 475.03C405.286 472.814 410.541 456.427 416.038 442.12C417.668 437.873 419.354 433.564 421.09 429.276C422.511 425.756 423.96 422.249 425.426 418.79C427.973 412.793 440.284 409.559 454.78 407.863C455.518 407.779 456.259 407.695 457.006 407.616C464.393 406.84 472.23 406.439 479.56 406.254C483.229 406.162 486.771 406.126 490.065 406.122C491.129 406.122 492.164 406.125 493.169 406.131H493.173C495.889 406.144 498.388 406.184 500.587 406.228C501.015 406.237 501.43 406.25 501.837 406.259H501.841C502.115 406.263 502.384 406.272 502.649 406.276C507.458 406.4 510.407 406.549 510.407 406.549L511.551 397.596L511.785 395.79L512.006 394.071V394.067L512.032 393.851L512.213 393.847L515.392 393.785L542.115 393.265L553.497 392.784L554.399 402.875Z" fill="#2F2E41"/>
<path d="M481.883 475.312C480.792 475.867 479.693 476.414 478.589 476.942C474.319 479 469.962 480.893 465.519 482.622C464.252 483.12 462.98 483.6 461.695 484.063C461.554 483.864 461.408 483.666 461.262 483.468C455.133 475.074 451.318 469.725 443.437 457.401C440.138 452.246 436.822 446.87 433.603 441.38L456.909 430.523L459.522 429.307L467.038 444.072L473.741 457.242L475.233 460.173L481.883 475.312Z" fill="#2F2E41"/>
<path d="M519.685 297.458C531.543 297.458 541.156 287.866 541.156 276.033C541.156 264.2 531.543 254.608 519.685 254.608C507.827 254.608 498.214 264.2 498.214 276.033C498.214 287.866 507.827 297.458 519.685 297.458Z" fill="#FFB6B6"/>
<path d="M558.011 342.629C557.834 324.934 558.355 330.058 556.951 323.965C553.18 307.583 537.527 304.595 534.799 304.225C534.508 303.453 534.061 302.749 533.486 302.156C532.911 301.564 532.22 301.096 531.456 300.781C530.692 300.467 529.871 300.313 529.044 300.328C528.218 300.344 527.404 300.529 526.652 300.872L521.428 303.575C516.363 305.889 519.437 309.231 517.688 314.505L515.852 320.101L500.799 361.62L503.846 377.416L503.85 377.425L505.903 388.066L511.991 394.987L511.878 393.882L511.741 394.093L511.736 394.098L511.383 394.622C511.873 394.891 512.359 395.155 512.836 395.42C514.072 396.098 515.278 396.763 516.452 397.416C516.735 397.574 517.013 397.728 517.291 397.887H517.295C517.472 397.984 517.649 398.081 517.821 398.178C522.228 400.636 505.917 405.113 509.542 407.215C510.045 407.506 510.544 407.796 511.034 408.083C527.725 417.825 541.042 429.959 545.347 433.484C547.273 431.158 549.14 428.783 550.951 426.36C552.593 424.17 554.184 421.942 555.724 419.675C555.993 417.904 556.174 416.133 556.351 414.397C556.563 412.308 555.459 392.961 555.83 390.833C555.993 389.89 555.366 388.995 554.761 388.132C554.2 387.325 553.671 386.568 553.781 385.854C553.896 385.118 554.708 384.316 555.499 383.536C556.36 382.681 557.252 381.8 557.38 380.87C557.733 378.28 556.28 375.68 556.554 373.071C557.004 368.828 557.35 364.572 557.592 360.302C557.932 354.407 558.071 348.516 558.011 342.629Z" fill="#ED7D39"/>
<path d="M436.908 386.026C437.795 385.093 438.875 384.366 440.074 383.896C441.272 383.425 442.56 383.222 443.845 383.302C445.131 383.382 446.383 383.741 447.514 384.356C448.645 384.971 449.627 385.826 450.391 386.86L480.29 377.594L475.765 393.188L448.067 399.597C446.24 400.763 444.048 401.219 441.907 400.88C439.765 400.541 437.822 399.43 436.447 397.757C435.072 396.084 434.359 393.966 434.444 391.804C434.529 389.642 435.406 387.586 436.909 386.026L436.908 386.026Z" fill="#FFB6B6"/>
<path d="M473.156 394.652L528.651 383.235L514.249 386.795C514.412 386.364 530.599 343.561 532.565 333.959C533.812 328.17 533.037 322.129 530.369 316.84L530.295 316.713L530.16 316.656C527.391 315.504 524.311 315.327 521.428 316.156C518.545 316.984 516.031 318.768 514.3 321.214C506.008 333.066 500.59 346.679 498.474 360.979L497.28 369.115L477.714 374.955L473.156 394.652Z" fill="#ED7D39"/>
<path d="M369.732 377.217C369.927 377.782 370.296 378.271 370.786 378.614C371.277 378.957 371.864 379.136 372.463 379.125L384.16 378.825C384.763 378.813 385.347 378.607 385.823 378.237C386.299 377.867 386.642 377.353 386.801 376.773L388.456 359.11C389.044 359.375 389.683 359.506 390.328 359.493C391.459 359.465 392.532 358.989 393.312 358.171C394.092 357.353 394.514 356.259 394.485 355.131C394.457 354.002 393.98 352.931 393.16 352.153C392.341 351.375 391.245 350.954 390.114 350.982C389.856 350.981 389.599 351.008 389.347 351.062C389.073 350.766 388.74 350.53 388.369 350.371C387.999 350.211 387.598 350.131 387.195 350.135L369.201 350.599C369.052 350.604 368.903 350.622 368.757 350.654C368.363 350.727 367.989 350.884 367.66 351.114C367.331 351.344 367.055 351.641 366.852 351.986C366.648 352.331 366.52 352.716 366.478 353.114C366.435 353.512 366.479 353.915 366.606 354.295L369.732 377.217ZM388.796 357.91L389.974 353.701C390.108 353.215 390.111 352.702 389.983 352.214C390.04 352.214 390.09 352.187 390.147 352.187C390.955 352.17 391.736 352.474 392.32 353.031C392.904 353.588 393.242 354.354 393.261 355.16C393.28 355.966 392.978 356.746 392.421 357.33C391.864 357.914 391.098 358.254 390.29 358.275C389.768 358.291 389.251 358.165 388.796 357.91Z" fill="#2F2E41"/>
<path d="M368.757 350.654C369.141 352.841 373.451 354.378 378.633 354.111C383.399 353.892 387.295 352.222 388.009 350.243C387.745 350.165 387.47 350.129 387.195 350.135L369.201 350.599C369.052 350.604 368.903 350.622 368.757 350.654V350.654Z" fill="#3F3D56"/>
<path d="M290.509 334.664V372.426C290.509 372.908 290.701 373.369 291.042 373.709C291.383 374.049 291.846 374.241 292.328 374.241H348.407C348.889 374.241 349.352 374.049 349.693 373.709C350.034 373.369 350.226 372.908 350.226 372.426V334.664C350.225 334.183 350.033 333.722 349.692 333.382C349.351 333.043 348.889 332.851 348.407 332.851H292.328C291.846 332.851 291.384 333.043 291.043 333.382C290.702 333.722 290.51 334.183 290.509 334.664V334.664Z" fill="#3F3D56"/>
<path d="M291.825 335.134V371.96C291.825 372.218 291.928 372.464 292.11 372.646C292.292 372.828 292.539 372.93 292.797 372.93H347.94C348.198 372.93 348.445 372.828 348.627 372.646C348.809 372.464 348.912 372.218 348.912 371.96V335.134C348.912 334.876 348.81 334.629 348.628 334.447C348.446 334.265 348.198 334.162 347.94 334.162H292.797C292.539 334.162 292.291 334.265 292.109 334.447C291.927 334.629 291.825 334.876 291.825 335.134V335.134Z" fill="#ED7D39"/>
<path d="M289.336 379.791C289.439 379.92 289.57 380.023 289.718 380.094C289.867 380.165 290.03 380.202 290.194 380.201H350.242C350.406 380.2 350.568 380.164 350.717 380.093C350.865 380.023 350.995 379.92 351.099 379.793C351.202 379.665 351.276 379.517 351.315 379.357C351.353 379.198 351.356 379.032 351.322 378.872L350.39 374.454C350.351 374.274 350.268 374.106 350.148 373.966C350.028 373.826 349.875 373.718 349.702 373.653C349.577 373.604 349.444 373.579 349.31 373.579H291.123C290.989 373.579 290.856 373.604 290.731 373.653C290.558 373.718 290.405 373.826 290.285 373.966C290.164 374.106 290.081 374.274 290.043 374.454L289.111 378.872C289.077 379.032 289.08 379.198 289.119 379.357C289.158 379.516 289.233 379.664 289.336 379.791V379.791Z" fill="#2F2E41"/>
<path d="M347.25 375.482H348.668C348.787 375.482 348.883 375.386 348.883 375.267V374.59C348.883 374.471 348.787 374.375 348.668 374.375H347.25C347.131 374.375 347.034 374.471 347.034 374.59V375.267C347.034 375.386 347.131 375.482 347.25 375.482Z" fill="#3F3D56"/>
<path d="M343.551 375.482H344.969C345.088 375.482 345.185 375.386 345.185 375.267V374.59C345.185 374.471 345.088 374.375 344.969 374.375H343.551C343.432 374.375 343.335 374.471 343.335 374.59V375.267C343.335 375.386 343.432 375.482 343.551 375.482Z" fill="#3F3D56"/>
<path d="M339.852 375.482H341.27C341.389 375.482 341.486 375.386 341.486 375.267V374.59C341.486 374.471 341.389 374.375 341.27 374.375H339.852C339.733 374.375 339.636 374.471 339.636 374.59V375.267C339.636 375.386 339.733 375.482 339.852 375.482Z" fill="#3F3D56"/>
<path d="M336.153 375.482H337.571C337.69 375.482 337.787 375.386 337.787 375.267V374.59C337.787 374.471 337.69 374.375 337.571 374.375H336.153C336.034 374.375 335.937 374.471 335.937 374.59V375.267C335.937 375.386 336.034 375.482 336.153 375.482Z" fill="#3F3D56"/>
<path d="M332.454 375.482H333.872C333.991 375.482 334.088 375.386 334.088 375.267V374.59C334.088 374.471 333.991 374.375 333.872 374.375H332.454C332.335 374.375 332.238 374.471 332.238 374.59V375.267C332.238 375.386 332.335 375.482 332.454 375.482Z" fill="#3F3D56"/>
<path d="M328.755 375.482H330.173C330.293 375.482 330.389 375.386 330.389 375.267V374.59C330.389 374.471 330.293 374.375 330.173 374.375H328.755C328.636 374.375 328.54 374.471 328.54 374.59V375.267C328.54 375.386 328.636 375.482 328.755 375.482Z" fill="#3F3D56"/>
<path d="M325.056 375.482H326.475C326.594 375.482 326.69 375.386 326.69 375.267V374.59C326.69 374.471 326.594 374.375 326.475 374.375H325.056C324.937 374.375 324.841 374.471 324.841 374.59V375.267C324.841 375.386 324.937 375.482 325.056 375.482Z" fill="#3F3D56"/>
<path d="M321.357 375.482H322.776C322.895 375.482 322.991 375.386 322.991 375.267V374.59C322.991 374.471 322.895 374.375 322.776 374.375H321.357C321.238 374.375 321.142 374.471 321.142 374.59V375.267C321.142 375.386 321.238 375.482 321.357 375.482Z" fill="#3F3D56"/>
<path d="M317.658 375.482H319.077C319.196 375.482 319.292 375.386 319.292 375.267V374.59C319.292 374.471 319.196 374.375 319.077 374.375H317.658C317.539 374.375 317.443 374.471 317.443 374.59V375.267C317.443 375.386 317.539 375.482 317.658 375.482Z" fill="#3F3D56"/>
<path d="M313.96 375.482H315.378C315.497 375.482 315.594 375.386 315.594 375.267V374.59C315.594 374.471 315.497 374.375 315.378 374.375H313.96C313.841 374.375 313.744 374.471 313.744 374.59V375.267C313.744 375.386 313.841 375.482 313.96 375.482Z" fill="#3F3D56"/>
<path d="M310.261 375.482H311.679C311.798 375.482 311.895 375.386 311.895 375.267V374.59C311.895 374.471 311.798 374.375 311.679 374.375H310.261C310.142 374.375 310.045 374.471 310.045 374.59V375.267C310.045 375.386 310.142 375.482 310.261 375.482Z" fill="#3F3D56"/>
<path d="M306.562 375.482H307.98C308.099 375.482 308.196 375.386 308.196 375.267V374.59C308.196 374.471 308.099 374.375 307.98 374.375H306.562C306.443 374.375 306.346 374.471 306.346 374.59V375.267C306.346 375.386 306.443 375.482 306.562 375.482Z" fill="#3F3D56"/>
<path d="M302.863 375.482H304.281C304.4 375.482 304.497 375.386 304.497 375.267V374.59C304.497 374.471 304.4 374.375 304.281 374.375H302.863C302.744 374.375 302.647 374.471 302.647 374.59V375.267C302.647 375.386 302.744 375.482 302.863 375.482Z" fill="#3F3D56"/>
<path d="M299.164 375.482H300.582C300.701 375.482 300.798 375.386 300.798 375.267V374.59C300.798 374.471 300.701 374.375 300.582 374.375H299.164C299.045 374.375 298.949 374.471 298.949 374.59V375.267C298.949 375.386 299.045 375.482 299.164 375.482Z" fill="#3F3D56"/>
<path d="M295.465 375.482H296.883C297.003 375.482 297.099 375.386 297.099 375.267V374.59C297.099 374.471 297.003 374.375 296.883 374.375H295.465C295.346 374.375 295.25 374.471 295.25 374.59V375.267C295.25 375.386 295.346 375.482 295.465 375.482Z" fill="#3F3D56"/>
<path d="M291.766 375.482H293.185C293.304 375.482 293.4 375.386 293.4 375.267V374.59C293.4 374.471 293.304 374.375 293.185 374.375H291.766C291.647 374.375 291.551 374.471 291.551 374.59V375.267C291.551 375.386 291.647 375.482 291.766 375.482Z" fill="#3F3D56"/>
<path d="M347.293 377.328H348.712C348.831 377.328 348.927 377.231 348.927 377.112V376.435C348.927 376.317 348.831 376.22 348.712 376.22H347.293C347.174 376.22 347.078 376.317 347.078 376.435V377.112C347.078 377.231 347.174 377.328 347.293 377.328Z" fill="#3F3D56"/>
<path d="M343.594 377.328H345.013C345.132 377.328 345.228 377.231 345.228 377.112V376.435C345.228 376.317 345.132 376.22 345.013 376.22H343.594C343.475 376.22 343.379 376.317 343.379 376.435V377.112C343.379 377.231 343.475 377.328 343.594 377.328Z" fill="#3F3D56"/>
<path d="M339.896 377.328H341.314C341.433 377.328 341.529 377.231 341.529 377.112V376.435C341.529 376.317 341.433 376.22 341.314 376.22H339.896C339.776 376.22 339.68 376.317 339.68 376.435V377.112C339.68 377.231 339.776 377.328 339.896 377.328Z" fill="#3F3D56"/>
<path d="M336.197 377.328H337.615C337.734 377.328 337.831 377.231 337.831 377.112V376.435C337.831 376.317 337.734 376.22 337.615 376.22H336.197C336.078 376.22 335.981 376.317 335.981 376.435V377.112C335.981 377.231 336.078 377.328 336.197 377.328Z" fill="#3F3D56"/>
<path d="M332.498 377.328H333.916C334.035 377.328 334.132 377.231 334.132 377.112V376.435C334.132 376.317 334.035 376.22 333.916 376.22H332.498C332.379 376.22 332.282 376.317 332.282 376.435V377.112C332.282 377.231 332.379 377.328 332.498 377.328Z" fill="#3F3D56"/>
<path d="M328.799 377.328H330.217C330.336 377.328 330.433 377.231 330.433 377.112V376.435C330.433 376.317 330.336 376.22 330.217 376.22H328.799C328.68 376.22 328.583 376.317 328.583 376.435V377.112C328.583 377.231 328.68 377.328 328.799 377.328Z" fill="#3F3D56"/>
<path d="M325.1 377.328H326.518C326.637 377.328 326.734 377.231 326.734 377.112V376.435C326.734 376.317 326.637 376.22 326.518 376.22H325.1C324.981 376.22 324.884 376.317 324.884 376.435V377.112C324.884 377.231 324.981 377.328 325.1 377.328Z" fill="#3F3D56"/>
<path d="M321.401 377.328H322.819C322.938 377.328 323.035 377.231 323.035 377.112V376.435C323.035 376.317 322.938 376.22 322.819 376.22H321.401C321.282 376.22 321.186 376.317 321.186 376.435V377.112C321.186 377.231 321.282 377.328 321.401 377.328Z" fill="#3F3D56"/>
<path d="M317.702 377.328H319.121C319.24 377.328 319.336 377.231 319.336 377.112V376.435C319.336 376.317 319.24 376.22 319.121 376.22H317.702C317.583 376.22 317.487 376.317 317.487 376.435V377.112C317.487 377.231 317.583 377.328 317.702 377.328Z" fill="#3F3D56"/>
<path d="M314.003 377.328H315.422C315.541 377.328 315.637 377.231 315.637 377.112V376.435C315.637 376.317 315.541 376.22 315.422 376.22H314.003C313.884 376.22 313.788 376.317 313.788 376.435V377.112C313.788 377.231 313.884 377.328 314.003 377.328Z" fill="#3F3D56"/>
<path d="M310.304 377.328H311.723C311.842 377.328 311.938 377.231 311.938 377.112V376.435C311.938 376.317 311.842 376.22 311.723 376.22H310.304C310.185 376.22 310.089 376.317 310.089 376.435V377.112C310.089 377.231 310.185 377.328 310.304 377.328Z" fill="#3F3D56"/>
<path d="M306.606 377.328H308.024C308.143 377.328 308.239 377.231 308.239 377.112V376.435C308.239 376.317 308.143 376.22 308.024 376.22H306.606C306.486 376.22 306.39 376.317 306.39 376.435V377.112C306.39 377.231 306.486 377.328 306.606 377.328Z" fill="#3F3D56"/>
<path d="M302.907 377.328H304.325C304.444 377.328 304.541 377.231 304.541 377.112V376.435C304.541 376.317 304.444 376.22 304.325 376.22H302.907C302.788 376.22 302.691 376.317 302.691 376.435V377.112C302.691 377.231 302.788 377.328 302.907 377.328Z" fill="#3F3D56"/>
<path d="M299.208 377.328H300.626C300.745 377.328 300.842 377.231 300.842 377.112V376.435C300.842 376.317 300.745 376.22 300.626 376.22H299.208C299.089 376.22 298.992 376.317 298.992 376.435V377.112C298.992 377.231 299.089 377.328 299.208 377.328Z" fill="#3F3D56"/>
<path d="M295.509 377.328H296.927C297.046 377.328 297.143 377.231 297.143 377.112V376.435C297.143 376.317 297.046 376.22 296.927 376.22H295.509C295.39 376.22 295.293 376.317 295.293 376.435V377.112C295.293 377.231 295.39 377.328 295.509 377.328Z" fill="#3F3D56"/>
<path d="M291.81 377.328H293.228C293.347 377.328 293.444 377.231 293.444 377.112V376.435C293.444 376.317 293.347 376.22 293.228 376.22H291.81C291.691 376.22 291.594 376.317 291.594 376.435V377.112C291.594 377.231 291.691 377.328 291.81 377.328Z" fill="#3F3D56"/>
<path d="M316.593 379.542H330.957C331.076 379.542 331.173 379.446 331.173 379.327V378.65C331.173 378.531 331.076 378.435 330.957 378.435H316.593C316.473 378.435 316.377 378.531 316.377 378.65V379.327C316.377 379.446 316.473 379.542 316.593 379.542Z" fill="#3F3D56"/>
<path d="M424.837 377.737L449.935 355.842C451.128 354.8 448.853 357.902 449.896 359.093C450.939 360.284 454.907 359.113 453.713 360.154L428.615 382.05L422.259 383.498L424.837 377.737Z" fill="#3F3D56"/>
<path d="M424.837 377.737L425.446 377.207C426.258 377.613 426.982 378.174 427.578 378.858C428.284 379.661 428.797 380.615 429.077 381.647L428.615 382.05L423.55 383.203L422.259 383.498L422.797 382.291L424.837 377.737Z" fill="#CCCCCC"/>
<path d="M422.797 382.291C422.986 382.374 423.152 382.5 423.282 382.658C423.413 382.816 423.505 383.003 423.55 383.203L422.259 383.498L422.797 382.291Z" fill="#3F3D56"/>
<path d="M588.592 307.56C586.225 311.093 582.437 313.539 578.357 314.75C576.7 315.243 574.989 315.533 573.261 315.614C573.048 313.665 572.537 311.76 571.747 309.965C571.827 311.876 571.561 313.785 570.961 315.601C568.367 315.454 565.832 314.776 563.512 313.609C558.986 311.296 555.502 306.872 554.729 301.854C553.82 295.993 556.482 290.239 557.445 284.388C558.412 278.536 556.597 271.125 550.857 269.587C546.485 268.415 546.976 268.922 543.342 271.614C547.122 277.191 533.16 297.63 527.446 295.848C524.215 294.84 522.147 291.882 521.48 291.882C516.99 299.602 525.445 312.609 516.923 315.31L517.626 314.609C522.77 308.295 512.018 294.931 517.162 288.617C518.597 286.851 520.125 284.758 519.701 282.524C519.299 280.4 515.921 279.276 514.932 281.021C516.711 276.954 514.084 271.526 509.735 270.482C505.871 269.552 505.942 270.698 502.065 271.195C501.812 269.524 501.338 267.892 500.657 266.344C500.728 268.012 500.532 269.681 500.078 271.288C498.709 271.261 497.386 270.784 496.316 269.931C493.155 267.389 493.795 262.048 496.616 259.136C499.442 256.223 503.641 255.175 507.646 254.496C508.811 246.406 531.179 245.562 534.144 253.646C535.407 247.609 542.98 244.477 548.865 246.349C554.751 248.222 558.836 253.707 560.986 259.488C563.136 265.265 563.737 271.482 565.062 277.501C566.386 283.52 568.625 289.649 573.235 293.751C577.845 297.848 585.355 299.205 590.213 295.399C591.745 299.364 590.954 304.021 588.592 307.56Z" fill="#2F2E41"/>
</g>
<path d="M401.076 10.1647H30.1704V186.098H401.076V10.1647Z" fill="#E6E6E6"/>
<path d="M390.47 25.2513H40.7766V172.038H390.47V25.2513Z" fill="white"/>
<path d="M400.918 0H30.0122V15.7511H400.918V0Z" fill="#ED7D39"/>
<path d="M41.7218 10.205C43.3348 10.205 44.6423 8.89796 44.6423 7.28562C44.6423 5.67327 43.3348 4.36621 41.7218 4.36621C40.1088 4.36621 38.8013 5.67327 38.8013 7.28562C38.8013 8.89796 40.1088 10.205 41.7218 10.205Z" fill="white"/>
<path d="M52.8072 10.205C54.4201 10.205 55.7277 8.89796 55.7277 7.28562C55.7277 5.67327 54.4201 4.36621 52.8072 4.36621C51.1942 4.36621 49.8866 5.67327 49.8866 7.28562C49.8866 8.89796 51.1942 10.205 52.8072 10.205Z" fill="white"/>
<path d="M63.8931 10.205C65.506 10.205 66.8136 8.89796 66.8136 7.28562C66.8136 5.67327 65.506 4.36621 63.8931 4.36621C62.2801 4.36621 60.9725 5.67327 60.9725 7.28562C60.9725 8.89796 62.2801 10.205 63.8931 10.205Z" fill="white"/>
<path d="M61.2276 119.69C60.8221 119.691 60.4337 119.853 60.1475 120.14C59.8613 120.427 59.7006 120.816 59.7006 121.222C59.7006 121.627 59.8613 122.016 60.1475 122.303C60.4337 122.59 60.8221 122.752 61.2276 122.754H145.32C145.726 122.752 146.114 122.59 146.4 122.303C146.687 122.016 146.847 121.627 146.847 121.222C146.847 120.816 146.687 120.427 146.4 120.14C146.114 119.853 145.726 119.691 145.32 119.69H61.2276Z" fill="#E6E6E6"/>
<path d="M61.2276 128.882C60.8221 128.884 60.4337 129.046 60.1475 129.333C59.8613 129.62 59.7006 130.009 59.7006 130.414C59.7006 130.819 59.8613 131.208 60.1475 131.495C60.4337 131.782 60.8221 131.945 61.2276 131.946H104.159C104.564 131.945 104.953 131.782 105.239 131.495C105.525 131.208 105.686 130.819 105.686 130.414C105.686 130.009 105.525 129.62 105.239 129.333C104.953 129.046 104.564 128.884 104.159 128.882H61.2276Z" fill="#E6E6E6"/>
<path d="M145.426 146.237H113.482C113.068 146.236 112.672 146.072 112.379 145.78C112.087 145.487 111.922 145.091 111.922 144.677V139.561C111.922 139.147 112.087 138.751 112.379 138.458C112.672 138.166 113.068 138.001 113.482 138.001H145.426C145.84 138.001 146.236 138.166 146.529 138.458C146.822 138.751 146.986 139.147 146.987 139.561V144.677C146.986 145.091 146.822 145.487 146.529 145.78C146.236 146.072 145.84 146.236 145.426 146.237V146.237Z" fill="#ED7D39"/>
<path d="M145.426 92.9612H113.482C113.068 92.9607 112.672 92.7962 112.379 92.5038C112.087 92.2113 111.922 91.8148 111.922 91.4012V86.2852C111.922 85.8716 112.087 85.4751 112.379 85.1826C112.672 84.8902 113.068 84.7257 113.482 84.7252H145.426C145.84 84.7257 146.236 84.8902 146.529 85.1826C146.822 85.4751 146.986 85.8716 146.987 86.2852V91.4013C146.986 91.8148 146.822 92.2113 146.529 92.5038C146.236 92.7962 145.84 92.9607 145.426 92.9612V92.9612Z" fill="#ED7D39"/>
<path d="M201.73 50.9228C201.2 50.9237 200.693 51.1346 200.318 51.5094C199.944 51.8842 199.734 52.3921 199.734 52.9217C199.734 53.4513 199.944 53.9593 200.318 54.3341C200.693 54.7089 201.2 54.9198 201.73 54.9207H368.978C369.508 54.9198 370.015 54.7089 370.39 54.3341C370.764 53.9593 370.974 53.4513 370.974 52.9217C370.974 52.3921 370.764 51.8842 370.39 51.5094C370.015 51.1346 369.508 50.9237 368.978 50.9228H201.73Z" fill="#E6E6E6"/>
<path d="M201.73 62.9175C201.2 62.9183 200.693 63.1293 200.318 63.5041C199.944 63.8789 199.734 64.3868 199.734 64.9164C199.734 65.446 199.944 65.954 200.318 66.3288C200.693 66.7036 201.2 66.9145 201.73 66.9153H315.268C315.798 66.9145 316.306 66.7036 316.68 66.3288C317.055 65.954 317.265 65.446 317.265 64.9164C317.265 64.3868 317.055 63.8789 316.68 63.5041C316.306 63.1293 315.798 62.9183 315.268 62.9175H201.73Z" fill="#E6E6E6"/>
<path d="M201.73 74.6408C201.2 74.6416 200.693 74.8526 200.318 75.2273C199.944 75.6021 199.734 76.1101 199.734 76.6397C199.734 77.1693 199.944 77.6773 200.318 78.052C200.693 78.4268 201.2 78.6378 201.73 78.6386H368.978C369.508 78.6378 370.015 78.4268 370.39 78.052C370.764 77.6773 370.974 77.1693 370.974 76.6397C370.974 76.1101 370.764 75.6021 370.39 75.2273C370.015 74.8526 369.508 74.6416 368.978 74.6408H201.73Z" fill="#E6E6E6"/>
<path d="M201.73 86.6354C201.2 86.6363 200.693 86.8472 200.318 87.222C199.944 87.5968 199.734 88.1048 199.734 88.6344C199.734 89.164 199.944 89.6719 200.318 90.0467C200.693 90.4215 201.2 90.6325 201.73 90.6333H315.268C315.798 90.6325 316.306 90.4215 316.68 90.0467C317.055 89.6719 317.265 89.164 317.265 88.6344C317.265 88.1048 317.055 87.5968 316.68 87.222C316.306 86.8472 315.798 86.6363 315.268 86.6354H201.73Z" fill="#E6E6E6"/>
<path d="M369.468 112.578H337.524C337.11 112.577 336.714 112.413 336.421 112.12C336.129 111.828 335.964 111.431 335.964 111.018V105.902C335.964 105.488 336.129 105.092 336.421 104.799C336.714 104.507 337.11 104.342 337.524 104.342H369.468C369.882 104.342 370.278 104.507 370.571 104.799C370.863 105.092 371.028 105.488 371.028 105.902V111.018C371.028 111.431 370.863 111.828 370.571 112.12C370.278 112.413 369.882 112.577 369.468 112.578V112.578Z" fill="#ED7D39"/>
<path d="M97.4457 53.0881C96.8781 53.0899 96.419 53.8267 96.4201 54.7337C96.4212 55.6382 96.8797 56.371 97.4457 56.3728H145.896C146.463 56.371 146.922 55.6342 146.921 54.7272C146.92 53.8227 146.462 53.0899 145.896 53.0881H97.4457Z" fill="#E4E4E4"/>
<path d="M97.4457 62.6049C96.8781 62.6068 96.419 63.3435 96.4201 64.2505C96.4212 65.155 96.8797 65.8878 97.4457 65.8896H145.896C146.463 65.8878 146.922 65.1511 146.921 64.244C146.92 63.3395 146.462 62.6067 145.896 62.6049H97.4457Z" fill="#E4E4E4"/>
<path d="M97.4457 72.0067C96.8781 72.0084 96.419 72.7452 96.4201 73.6522C96.4212 74.5567 96.8797 75.2895 97.4457 75.2913H118.294C118.861 75.2895 119.321 74.5528 119.319 73.6457C119.318 72.7412 118.86 72.0084 118.294 72.0067H97.4457Z" fill="#E4E4E4"/>
<path d="M72.8455 77.2074C80.1066 77.2074 85.9929 71.3234 85.9929 64.0651C85.9929 56.8068 80.1066 50.9228 72.8455 50.9228C65.5844 50.9228 59.6981 56.8068 59.6981 64.0651C59.6981 71.3234 65.5844 77.2074 72.8455 77.2074Z" fill="#E4E4E4"/>
<path d="M41.4966 308.144H46.1891L48.4217 290.05H41.4956L41.4966 308.144Z" fill="#9E616A"/>
<path d="M40.2995 306.613L49.5412 306.612H49.5416C51.1036 306.612 52.6015 307.232 53.706 308.337C54.8105 309.441 55.431 310.938 55.4311 312.499V312.691L40.2998 312.691L40.2995 306.613Z" fill="#2F2E41"/>
<path d="M84.75 308.144H89.4425L91.6751 290.05H84.749L84.75 308.144Z" fill="#9E616A"/>
<path d="M83.5529 306.613L92.7946 306.612H92.7949C94.3569 306.612 95.8548 307.233 96.9593 308.337C98.0638 309.441 98.6843 310.938 98.6844 312.499V312.691L83.5531 312.691L83.5529 306.613Z" fill="#2F2E41"/>
<path d="M79.0838 162.785L82.1459 182.299L53.0555 182.682L56.8829 163.933L79.0838 162.785Z" fill="#9E616A"/>
<path d="M81.3018 177.534L90.5671 202.195L91.7154 304.396H83.8686L65.1127 222.283L47.8879 302.252H40.2325L45.5913 212.335C45.5913 212.335 44.011 194.288 52.0984 183.638L54.067 177.953L81.3018 177.534Z" fill="#2F2E41"/>
<path d="M41.5591 196.759C42.3691 196.538 43.1208 196.143 43.7613 195.6C44.4019 195.058 44.9156 194.382 45.2664 193.619C45.6172 192.857 45.7965 192.027 45.7916 191.187C45.7868 190.348 45.5979 189.52 45.2384 188.762L57.614 148.43L48.5113 146.626L37.1925 186.16C35.9581 186.848 35.0192 187.965 34.5536 189.299C34.088 190.633 34.1281 192.092 34.6663 193.398C35.2046 194.705 36.2035 195.768 37.4739 196.388C38.7443 197.007 40.1978 197.139 41.5591 196.759Z" fill="#9E616A"/>
<path d="M57.8811 173.562C57.7113 173.562 57.5419 173.546 57.3753 173.513V173.513C56.8152 173.401 56.3071 173.108 55.9287 172.681C55.5504 172.253 55.3225 171.713 55.2799 171.144C54.9921 167.205 53.5664 160.35 51.0421 150.768C50.19 147.511 50.3788 144.07 51.5819 140.926C52.785 137.782 54.9422 135.093 57.7511 133.236C60.56 131.379 63.8797 130.448 67.2449 130.572C70.6101 130.696 73.8521 131.87 76.5164 133.928C78.2223 135.235 79.6461 136.873 80.702 138.743C81.7579 140.614 82.424 142.679 82.6604 144.814C83.9149 155.858 81.5498 166.946 80.4748 171.201C80.3335 171.756 80.014 172.25 79.5652 172.607C79.1164 172.963 78.563 173.163 77.9898 173.175L57.9369 173.562C57.9183 173.562 57.8997 173.562 57.8811 173.562Z" fill="#3F3D56"/>
<path d="M113.905 138.135C113.785 138.405 113.686 138.684 113.609 138.97L88.5088 147.496L83.6587 143.26L76.3074 149.742L84.1647 158.074C84.7994 158.747 85.6355 159.196 86.5474 159.354C87.4593 159.512 88.3977 159.369 89.2218 158.949L116.081 145.234C117.052 145.83 118.182 146.116 119.32 146.054C120.458 145.992 121.55 145.585 122.451 144.888C123.351 144.191 124.019 143.235 124.363 142.15C124.708 141.064 124.714 139.899 124.38 138.81C124.046 137.721 123.389 136.759 122.495 136.053C121.601 135.347 120.513 134.929 119.376 134.856C118.239 134.782 117.107 135.057 116.129 135.643C115.152 136.228 114.376 137.098 113.905 138.135V138.135Z" fill="#9E616A"/>
<path d="M87.6338 147.962L78.4835 155.951C78.2232 156.178 77.9169 156.347 77.5855 156.445C77.2541 156.543 76.9054 156.569 76.5632 156.52C76.2209 156.472 75.8931 156.35 75.6022 156.164C75.3112 155.977 75.064 155.73 74.8771 155.439L68.3322 145.251C67.175 143.913 66.5961 142.171 66.7224 140.407C66.8487 138.643 67.67 137.001 69.006 135.841C70.342 134.682 72.0836 134.099 73.8487 134.222C75.6138 134.344 77.2581 135.162 78.421 136.495L87.6118 144.321C87.8749 144.545 88.0865 144.823 88.2324 145.136C88.3782 145.45 88.4547 145.791 88.4568 146.136C88.4589 146.482 88.3865 146.824 88.2445 147.139C88.1024 147.454 87.8942 147.734 87.6338 147.962H87.6338Z" fill="#3F3D56"/>
<path d="M56.1683 158.757L44.8605 154.316C44.5388 154.19 44.2481 153.996 44.0082 153.747C43.7683 153.498 43.5849 153.2 43.4704 152.874C43.3559 152.548 43.3131 152.201 43.3448 151.857C43.3765 151.513 43.482 151.18 43.6542 150.88L49.6874 140.382C50.3433 138.74 51.6238 137.425 53.2482 136.725C54.8726 136.026 56.7082 135.998 58.3526 136.65C59.9969 137.301 61.3158 138.578 62.0199 140.2C62.7241 141.821 62.756 143.656 62.1088 145.302L59.3915 157.061C59.3136 157.397 59.164 157.713 58.9529 157.987C58.7419 158.26 58.4743 158.485 58.1684 158.646C57.8625 158.807 57.5255 158.901 57.1804 158.92C56.8352 158.939 56.49 158.883 56.1683 158.757V158.757Z" fill="#3F3D56"/>
<path d="M64.5505 128.086C71.3437 128.086 76.8506 122.581 76.8506 115.791C76.8506 109 71.3437 103.495 64.5505 103.495C57.7574 103.495 52.2505 109 52.2505 115.791C52.2505 122.581 57.7574 128.086 64.5505 128.086Z" fill="#9E616A"/>
<path d="M192.205 314H0.587586C0.432044 314 0.283026 313.937 0.1732 313.827C0.0633745 313.717 0.00170517 313.568 0.00170517 313.413C0.00170517 313.257 0.0633745 313.108 0.1732 312.998C0.283026 312.888 0.432044 312.826 0.587586 312.825H192.205C192.36 312.826 192.509 312.888 192.619 312.998C192.729 313.108 192.79 313.257 192.79 313.413C192.79 313.568 192.729 313.717 192.619 313.827C192.509 313.937 192.36 314 192.205 314V314Z" fill="#CACACA"/>
<path d="M73.012 110.848C75.6509 110.833 78.2899 110.818 80.9289 110.803C81.1166 109.005 80.3162 107.217 79.1499 105.835C77.9208 104.506 76.5191 103.348 74.982 102.391C73.4683 101.353 71.9002 100.291 70.1007 99.9278C68.5923 99.6236 67.0333 99.8347 65.5095 100.046C63.4885 100.327 61.4677 100.608 59.4469 100.889C57.2287 101.198 54.9077 101.546 53.1061 102.876C50.6695 104.674 49.7375 107.826 48.9546 110.75L44.621 126.938L70.2183 129.622C71.1442 129.781 72.0927 129.754 73.0079 129.541C73.4636 129.426 73.8757 129.181 74.1928 128.834C74.5099 128.487 74.7182 128.055 74.7917 127.591C74.8654 126.548 74.0372 125.694 73.3647 124.892C71.7604 122.905 70.7974 120.478 70.6032 117.932C70.4089 115.386 70.9925 112.841 72.2768 110.633L73.012 110.848Z" fill="#2F2E41"/>
<defs>
<clipPath id="clip0_88_62">
<rect width="375" height="371" fill="white" transform="translate(216 130)"/>
</clipPath>
</defs>
</svg>
