<svg width="291" height="181" viewBox="0 0 291 181" fill="none" xmlns="http://www.w3.org/2000/svg">
<path d="M102.506 153.282H0V37.9631H78.5877V49.495H10.2506V141.75H95.672V99.4666H105.923V153.282H102.506ZM19.1344 93.6045L26.8522 84.922L50.01 110.974L108.438 45.2426L116.173 53.906L50.01 128.34L19.1344 93.6045Z" fill="black"/>
<path d="M166.523 40.9269H148.381V88H137.432V40.9269H119.29V31.2565H166.523V40.9269ZM188.062 88.7992C184.705 88.7992 181.669 88.2398 178.951 87.1209C176.234 85.9487 173.916 84.3769 171.998 82.4056C170.08 80.3809 168.588 78.0899 167.523 75.5324C166.51 72.9217 166.004 70.1778 166.004 67.3006C166.004 63.3046 166.883 59.6549 168.641 56.3515C170.453 53.0481 173.01 50.4108 176.314 48.4394C179.671 46.4148 183.613 45.4024 188.142 45.4024C192.724 45.4024 196.64 46.4148 199.89 48.4394C203.14 50.4108 205.618 53.0481 207.323 56.3515C209.081 59.6016 209.96 63.1181 209.96 66.901C209.96 67.5404 209.934 68.2064 209.88 68.899C209.827 69.5384 209.774 70.0712 209.721 70.4974H177.353C177.566 72.6286 178.179 74.4935 179.191 76.0919C180.257 77.6903 181.589 78.9157 183.187 79.7682C184.839 80.5674 186.597 80.967 188.462 80.967C190.593 80.967 192.591 80.4608 194.456 79.4485C196.374 78.3829 197.679 76.9976 198.372 75.2927L207.563 77.8501C206.55 79.9813 205.085 81.8728 203.167 83.5245C201.302 85.1761 199.091 86.4815 196.534 87.4406C193.976 88.3463 191.152 88.7992 188.062 88.7992ZM177.113 63.7042H199.011C198.798 61.573 198.185 59.7348 197.173 58.1897C196.214 56.5913 194.935 55.3658 193.337 54.5134C191.738 53.6076 189.954 53.1547 187.982 53.1547C186.064 53.1547 184.306 53.6076 182.707 54.5134C181.162 55.3658 179.884 56.5913 178.871 58.1897C177.912 59.7348 177.326 61.573 177.113 63.7042ZM235.905 88.7992C232.335 88.7992 228.925 88.2131 225.675 87.041C222.425 85.8688 219.628 84.1372 217.284 81.8461L221.12 74.8931C223.624 76.9177 226.075 78.4096 228.473 79.3686C230.923 80.3276 233.268 80.8072 235.506 80.8072C237.583 80.8072 239.235 80.4342 240.461 79.6883C241.739 78.9424 242.379 77.8235 242.379 76.3316C242.379 75.3193 242.032 74.5467 241.34 74.0139C240.647 73.4278 239.635 72.9217 238.303 72.4954C237.024 72.0692 235.452 71.5897 233.587 71.0569C230.497 70.0446 227.913 69.0589 225.835 68.0998C223.757 67.1408 222.185 65.942 221.12 64.5034C220.108 63.0116 219.601 61.1201 219.601 58.8291C219.601 56.0585 220.294 53.6875 221.679 51.7161C223.118 49.6915 225.089 48.1197 227.593 47.0008C230.151 45.882 233.135 45.3225 236.544 45.3225C239.528 45.3225 242.352 45.802 245.016 46.7611C247.68 47.6668 250.104 49.1587 252.289 51.2366L247.973 58.0299C245.842 56.3782 243.817 55.1794 241.899 54.4334C239.981 53.6342 238.036 53.2346 236.065 53.2346C234.946 53.2346 233.88 53.3678 232.868 53.6342C231.909 53.9006 231.11 54.3535 230.471 54.9929C229.884 55.579 229.591 56.4314 229.591 57.5503C229.591 58.5627 229.858 59.3619 230.391 59.9479C230.977 60.4807 231.829 60.9603 232.948 61.3865C234.12 61.8128 235.532 62.2923 237.184 62.8251C240.54 63.7841 243.364 64.7698 245.655 65.7821C248 66.7945 249.758 68.0465 250.93 69.5384C252.102 70.977 252.688 72.975 252.688 75.5324C252.688 79.6883 251.17 82.9384 248.133 85.2827C245.096 87.627 241.02 88.7992 235.905 88.7992ZM288.829 85.8421C287.923 86.2151 286.831 86.6414 285.553 87.1209C284.274 87.6004 282.889 87.9734 281.397 88.2398C279.958 88.5594 278.493 88.7193 277.001 88.7193C275.03 88.7193 273.218 88.373 271.566 87.6803C269.915 86.9877 268.583 85.8954 267.57 84.4036C266.611 82.8585 266.132 80.8604 266.132 78.4096V54.3535H260.617V46.1217H266.132V32.5353H276.841V46.1217H285.632V54.3535H276.841V74.8131C276.894 76.2517 277.294 77.2907 278.04 77.93C278.786 78.5694 279.718 78.8891 280.837 78.8891C281.956 78.8891 283.048 78.7026 284.114 78.3296C285.18 77.9567 286.032 77.637 286.671 77.3706L288.829 85.8421Z" fill="black"/>
<path d="M136.555 151.929V100.224H146.619V124.8L168.351 100.151H179.436L159.6 123.123L180.676 151.929H169.299L153.182 129.614L146.619 136.469V151.929H136.555ZM185.127 140.626C185.127 138.146 185.808 135.983 187.169 134.135C188.579 132.239 190.524 130.78 193.003 129.759C195.483 128.738 198.327 128.228 201.536 128.228C203.14 128.228 204.769 128.349 206.422 128.593C208.075 128.836 209.509 129.225 210.725 129.759V127.717C210.725 125.286 209.996 123.415 208.537 122.102C207.127 120.789 205.012 120.133 202.192 120.133C200.102 120.133 198.108 120.498 196.212 121.227C194.316 121.956 192.323 123.026 190.232 124.436L187.096 118.018C189.624 116.365 192.201 115.125 194.827 114.299C197.501 113.472 200.296 113.059 203.213 113.059C208.659 113.059 212.888 114.42 215.903 117.143C218.966 119.866 220.497 123.755 220.497 128.811V140.99C220.497 142.011 220.667 142.74 221.008 143.178C221.396 143.616 222.004 143.883 222.831 143.98V151.929C221.956 152.075 221.153 152.197 220.424 152.294C219.743 152.391 219.16 152.44 218.674 152.44C216.729 152.44 215.246 152.002 214.225 151.127C213.253 150.252 212.645 149.182 212.402 147.918L212.183 145.949C210.53 148.088 208.464 149.741 205.985 150.908C203.505 152.075 200.977 152.659 198.4 152.659C195.872 152.659 193.587 152.148 191.545 151.127C189.552 150.057 187.971 148.623 186.805 146.824C185.686 144.977 185.127 142.911 185.127 140.626ZM208.902 142.595C209.436 142.011 209.874 141.428 210.214 140.844C210.555 140.261 210.725 139.726 210.725 139.24V135.375C209.558 134.889 208.294 134.524 206.933 134.281C205.571 133.989 204.283 133.843 203.067 133.843C200.539 133.843 198.449 134.402 196.796 135.521C195.191 136.59 194.389 138.024 194.389 139.823C194.389 140.796 194.656 141.719 195.191 142.595C195.726 143.47 196.504 144.175 197.525 144.709C198.546 145.244 199.761 145.512 201.171 145.512C202.63 145.512 204.064 145.244 205.474 144.709C206.884 144.126 208.026 143.421 208.902 142.595ZM256.029 122.175C253.063 122.175 250.413 122.758 248.08 123.925C245.746 125.043 244.069 126.672 243.048 128.811V151.929H233.275V113.715H242.245V121.883C243.607 119.258 245.333 117.192 247.423 115.684C249.514 114.177 251.726 113.351 254.06 113.205C254.594 113.205 255.008 113.205 255.299 113.205C255.591 113.205 255.834 113.229 256.029 113.278V122.175ZM288.023 149.96C287.197 150.301 286.2 150.69 285.033 151.127C283.866 151.565 282.602 151.905 281.241 152.148C279.928 152.44 278.591 152.586 277.23 152.586C275.431 152.586 273.778 152.27 272.271 151.638C270.764 151.006 269.548 150.009 268.625 148.648C267.749 147.238 267.312 145.414 267.312 143.178V121.227H262.28V113.715H267.312V101.318H277.084V113.715H285.106V121.227H277.084V139.896C277.133 141.209 277.497 142.157 278.178 142.74C278.859 143.324 279.71 143.616 280.73 143.616C281.751 143.616 282.748 143.445 283.721 143.105C284.693 142.765 285.471 142.473 286.054 142.23L288.023 149.96Z" fill="#ED7D39"/>
</svg>
