<svg width="80" height="80" viewBox="0 0 80 80" fill="none" xmlns="http://www.w3.org/2000/svg">
<path d="M37.875 49.3438C41.2292 47.1156 43.7769 43.8667 45.1412 40.078C46.5054 36.2893 46.6137 32.1621 45.4499 28.307C44.2862 24.452 41.9123 21.0741 38.6795 18.6731C35.4467 16.2722 31.5268 14.9758 27.5 14.9758C23.4732 14.9758 19.5533 16.2722 16.3205 18.6731C13.0877 21.0741 10.7138 24.452 9.55007 28.307C8.38632 32.1621 8.49458 36.2893 9.85882 40.078C11.2231 43.8667 13.7708 47.1156 17.125 49.3438C11.403 51.4479 6.46275 55.254 2.96875 60.25C2.74102 60.5139 2.57098 60.8224 2.46955 61.1559C2.36812 61.4893 2.33753 61.8403 2.37976 62.1863C2.42198 62.5323 2.53609 62.8656 2.71474 63.1649C2.8934 63.4642 3.13266 63.7228 3.41717 63.9241C3.70168 64.1255 4.02514 64.2651 4.3668 64.334C4.70846 64.403 5.06076 64.3997 5.40108 64.3245C5.74141 64.2492 6.06224 64.1036 6.34298 63.8971C6.62372 63.6905 6.85816 63.4275 7.03125 63.125C9.34148 59.843 12.407 57.1647 15.9694 55.3158C19.5317 53.467 23.4865 52.5019 27.5 52.5019C31.5136 52.5019 35.4683 53.467 39.0306 55.3158C42.593 57.1647 45.6585 59.843 47.9688 63.125C48.1418 63.4275 48.3763 63.6905 48.657 63.8971C48.9378 64.1036 49.2586 64.2492 49.5989 64.3245C49.9393 64.3997 50.2915 64.403 50.6332 64.334C50.9749 64.2651 51.2983 64.1255 51.5828 63.9241C51.8673 63.7228 52.1066 63.4642 52.2853 63.1649C52.4639 62.8656 52.578 62.5323 52.6203 62.1863C52.6625 61.8403 52.6319 61.4893 52.5305 61.1559C52.429 60.8224 52.259 60.5139 52.0313 60.25C48.5373 55.254 43.597 51.4479 37.875 49.3438ZM13.75 33.75C13.75 31.0305 14.5564 28.3721 16.0673 26.1109C17.5782 23.8497 19.7256 22.0874 22.2381 21.0467C24.7506 20.006 27.5153 19.7337 30.1825 20.2642C32.8497 20.7948 35.2998 22.1043 37.2227 24.0273C39.1457 25.9503 40.4553 28.4003 40.9858 31.0675C41.5163 33.7347 41.2441 36.4994 40.2033 39.0119C39.1626 41.5244 37.4003 43.6718 35.1391 45.1827C32.8779 46.6936 30.2195 47.5 27.5 47.5C23.8533 47.5 20.3559 46.0513 17.7773 43.4727C15.1987 40.8941 13.75 37.3967 13.75 33.75ZM76.9063 63.7188C76.6404 63.9101 76.3392 64.0466 76.0201 64.1204C75.701 64.1942 75.3703 64.2037 75.0475 64.1484C74.7247 64.0932 74.4161 63.9742 74.1397 63.7985C73.8632 63.6228 73.6246 63.3939 73.4375 63.125C71.1256 59.8445 68.0598 57.1672 64.4978 55.3183C60.9359 53.4693 56.982 52.5028 52.9688 52.5C52.3057 52.5 51.6698 52.2366 51.201 51.7678C50.7321 51.2989 50.4688 50.663 50.4688 50C50.4688 49.337 50.7321 48.7011 51.201 48.2322C51.6698 47.7634 52.3057 47.5 52.9688 47.5C56.6155 47.5 60.1128 46.0513 62.6915 43.4727C65.2701 40.8941 66.7188 37.3967 66.7188 33.75C66.7188 30.1033 65.2701 26.6059 62.6915 24.0273C60.1128 21.4487 56.6155 20 52.9688 20C51.713 20.0084 50.4634 20.1764 49.25 20.5C48.934 20.5906 48.6032 20.6181 48.2766 20.5807C47.95 20.5433 47.634 20.4419 47.3467 20.2823C47.0593 20.1226 46.8062 19.9079 46.602 19.6503C46.3977 19.3928 46.2462 19.0974 46.1562 18.7813C45.9817 18.1433 46.0639 17.4623 46.3851 16.8841C46.7063 16.3059 47.2411 15.8764 47.875 15.6875C49.5363 15.2402 51.2483 15.0091 52.9688 15C56.9998 14.9855 60.9277 16.2726 64.1684 18.6699C67.4091 21.0672 69.7894 24.4466 70.9551 28.3054C72.1208 32.1642 72.0097 36.2962 70.6383 40.0868C69.267 43.8774 66.7086 47.124 63.3438 49.3438C69.0694 51.4565 74.0174 55.2601 77.5313 60.25C77.9063 60.7935 78.0511 61.4633 77.934 62.1133C77.8169 62.7632 77.4474 63.3403 76.9063 63.7188Z" fill="black"/>
</svg>
