<svg width="400" height="121" viewBox="0 0 400 121" fill="none" xmlns="http://www.w3.org/2000/svg">
<path d="M51.1765 88H0V30.4265H39.2353V36.1839H5.11765V82.2427H47.7647V61.1324H52.8824V88H51.1765ZM9.55294 58.2057L13.4061 53.8709L24.9677 66.8778L54.1383 34.0608L58 38.3861L24.9677 75.5474L9.55294 58.2057Z" fill="black"/>
<path d="M115.76 37.6H96.16V88H88.96V37.6H69.36V31.2H115.76V37.6ZM136.394 88.8C133.248 88.8 130.368 88.24 127.754 87.12C125.194 85.9467 122.954 84.3733 121.034 82.4C119.168 80.3733 117.701 78.0533 116.634 75.44C115.621 72.8267 115.114 70.0533 115.114 67.12C115.114 63.1733 116.021 59.5733 117.834 56.32C119.648 53.0667 122.154 50.4533 125.354 48.48C128.608 46.5067 132.314 45.52 136.474 45.52C140.688 45.52 144.341 46.5333 147.434 48.56C150.581 50.5333 153.008 53.1467 154.714 56.4C156.474 59.6 157.354 63.0667 157.354 66.8C157.354 67.3333 157.328 67.8667 157.274 68.4C157.274 68.88 157.248 69.2533 157.194 69.52H122.554C122.768 72.24 123.514 74.6667 124.794 76.8C126.128 78.88 127.834 80.5333 129.914 81.76C131.994 82.9333 134.234 83.52 136.634 83.52C139.194 83.52 141.594 82.88 143.834 81.6C146.128 80.32 147.701 78.64 148.554 76.56L154.634 78.24C153.728 80.2667 152.368 82.08 150.554 83.68C148.794 85.28 146.688 86.5333 144.234 87.44C141.834 88.3467 139.221 88.8 136.394 88.8ZM122.314 64.64H150.794C150.581 61.92 149.808 59.52 148.474 57.44C147.141 55.36 145.434 53.7333 143.354 52.56C141.274 51.3867 138.981 50.8 136.474 50.8C134.021 50.8 131.754 51.3867 129.674 52.56C127.594 53.7333 125.888 55.36 124.554 57.44C123.274 59.52 122.528 61.92 122.314 64.64ZM183.5 88.8C180.033 88.8 176.78 88.24 173.74 87.12C170.7 85.9467 168.087 84.2133 165.9 81.92L168.62 76.96C171.02 79.2 173.42 80.8 175.82 81.76C178.22 82.72 180.673 83.2 183.18 83.2C186.06 83.2 188.407 82.6667 190.22 81.6C192.033 80.48 192.94 78.8533 192.94 76.72C192.94 75.1733 192.46 74.0267 191.5 73.28C190.593 72.5333 189.287 71.92 187.58 71.44C185.873 70.9067 183.847 70.32 181.5 69.68C178.62 68.8267 176.193 67.92 174.22 66.96C172.247 66 170.753 64.8 169.74 63.36C168.727 61.92 168.22 60.1067 168.22 57.92C168.22 55.2533 168.913 53.0133 170.3 51.2C171.687 49.3333 173.58 47.92 175.98 46.96C178.433 46 181.207 45.52 184.3 45.52C187.393 45.52 190.193 46 192.7 46.96C195.207 47.92 197.367 49.3333 199.18 51.2L195.98 56.08C194.327 54.3733 192.513 53.12 190.54 52.32C188.567 51.4667 186.353 51.04 183.9 51.04C182.46 51.04 181.047 51.2267 179.66 51.6C178.273 51.92 177.127 52.5333 176.22 53.44C175.313 54.2933 174.86 55.52 174.86 57.12C174.86 58.4533 175.207 59.52 175.9 60.32C176.647 61.0667 177.713 61.7067 179.1 62.24C180.54 62.7733 182.273 63.36 184.3 64C187.447 64.9067 190.167 65.8133 192.46 66.72C194.807 67.6267 196.62 68.8 197.9 70.24C199.18 71.68 199.82 73.68 199.82 76.24C199.82 80.1867 198.327 83.28 195.34 85.52C192.353 87.7067 188.407 88.8 183.5 88.8ZM233.843 85.92C233.256 86.1867 232.456 86.5333 231.443 86.96C230.429 87.3867 229.256 87.76 227.923 88.08C226.589 88.4 225.176 88.56 223.683 88.56C221.976 88.56 220.403 88.2667 218.963 87.68C217.523 87.04 216.376 86.08 215.523 84.8C214.669 83.4667 214.243 81.8133 214.243 79.84V51.76H208.563V46.24H214.243V32.32H221.283V46.24H230.643V51.76H221.283V77.68C221.389 79.1733 221.896 80.2933 222.803 81.04C223.709 81.7333 224.776 82.08 226.003 82.08C227.389 82.08 228.669 81.84 229.843 81.36C231.016 80.88 231.789 80.5333 232.163 80.32L233.843 85.92Z" fill="black"/>
<path d="M240.8 89V32.28H248V63.64L277.28 32.2H285.04L262.24 57.24L286.32 89H278.24L257.68 61.56L248 71.64V89H240.8ZM292.588 76.92C292.588 74.2533 293.334 71.96 294.828 70.04C296.374 68.0667 298.481 66.5467 301.148 65.48C303.814 64.4133 306.908 63.88 310.428 63.88C312.294 63.88 314.268 64.04 316.348 64.36C318.428 64.6267 320.268 65.0533 321.868 65.64V62.6C321.868 59.4 320.908 56.8933 318.988 55.08C317.068 53.2133 314.348 52.28 310.828 52.28C308.534 52.28 306.321 52.7067 304.188 53.56C302.108 54.36 299.894 55.5333 297.548 57.08L294.988 52.12C297.708 50.2533 300.428 48.8667 303.148 47.96C305.868 47 308.694 46.52 311.628 46.52C316.961 46.52 321.174 48.0133 324.268 51C327.361 53.9333 328.908 58.04 328.908 63.32V81C328.908 81.8533 329.068 82.4933 329.388 82.92C329.761 83.2933 330.348 83.5067 331.148 83.56V89C330.454 89.1067 329.841 89.1867 329.308 89.24C328.828 89.2933 328.428 89.32 328.108 89.32C326.454 89.32 325.201 88.8667 324.348 87.96C323.548 87.0533 323.094 86.0933 322.988 85.08L322.828 82.44C321.014 84.7867 318.641 86.6 315.708 87.88C312.774 89.16 309.868 89.8 306.988 89.8C304.214 89.8 301.734 89.24 299.548 88.12C297.361 86.9467 295.654 85.4 294.428 83.48C293.201 81.5067 292.588 79.32 292.588 76.92ZM319.788 79.88C320.428 79.1333 320.934 78.3867 321.308 77.64C321.681 76.84 321.868 76.1733 321.868 75.64V70.44C320.214 69.8 318.481 69.32 316.668 69C314.854 68.6267 313.068 68.44 311.307 68.44C307.734 68.44 304.828 69.16 302.588 70.6C300.401 71.9867 299.308 73.9067 299.308 76.36C299.308 77.6933 299.654 79 300.348 80.28C301.094 81.5067 302.161 82.52 303.548 83.32C304.988 84.12 306.748 84.52 308.828 84.52C311.014 84.52 313.094 84.0933 315.068 83.24C317.041 82.3333 318.614 81.2133 319.788 79.88ZM366.244 53.4C362.724 53.4533 359.604 54.36 356.884 56.12C354.218 57.8267 352.324 60.2 351.204 63.24V89H344.164V47.24H350.724V56.92C352.164 54.04 354.058 51.72 356.404 49.96C358.804 48.1467 361.311 47.1333 363.924 46.92C364.458 46.92 364.911 46.92 365.284 46.92C365.658 46.92 365.978 46.9467 366.244 47V53.4ZM398.827 86.92C398.24 87.1867 397.44 87.5333 396.427 87.96C395.414 88.3867 394.24 88.76 392.907 89.08C391.574 89.4 390.16 89.56 388.667 89.56C386.96 89.56 385.387 89.2667 383.947 88.68C382.507 88.04 381.36 87.08 380.507 85.8C379.654 84.4667 379.227 82.8133 379.227 80.84V52.76H373.547V47.24H379.227V33.32H386.267V47.24H395.627V52.76H386.267V78.68C386.374 80.1733 386.88 81.2933 387.787 82.04C388.694 82.7333 389.76 83.08 390.987 83.08C392.374 83.08 393.654 82.84 394.827 82.36C396 81.88 396.774 81.5333 397.147 81.32L398.827 86.92Z" fill="#ED7D39"/>
</svg>
